<svg xmlns="http://www.w3.org/2000/svg" viewBox="0 0 360 240" font-family="system-ui, -apple-system, 'Segoe UI', Roboto, sans-serif" font-size="11.5" font-weight="600" fill="#2D2B57">
  <!-- À gauche, triangle ABC obtus en B : la hauteur issue de A coupe le prolongement de [BC] en H, à l'extérieur du triangle. À droite, les trois médiatrices d'un triangle ABC concourent en O, centre du cercle circonscrit. Réviz, 5e maths, droites remarquables du triangle. -->
  <path d="M168,24 V208" stroke="#EDE8E1" stroke-width="1"/>
  <path d="M22,186 L74,186" fill="none" stroke="#2D2B57" stroke-width="1.5" stroke-linecap="round" stroke-linejoin="round" stroke-dasharray="4 3"/>
  <path d="M30,58 L74,186 M74,186 L140,186 M140,186 L30,58" fill="none" stroke="#2D2B57" stroke-width="1.75" stroke-linecap="round" stroke-linejoin="round"/>
  <path d="M30,58 L30,186" fill="none" stroke="#B34400" stroke-width="2.25" stroke-linecap="round" stroke-linejoin="round"/>
  <path d="M38,186 L38,178 L30,178" fill="none" stroke="#B34400" stroke-width="1.4" stroke-linecap="round" stroke-linejoin="round"/>
  <g font-size="12.5" font-weight="700" fill="#2D2B57" text-anchor="middle"><text x="30" y="49">A</text><text x="74" y="203">B</text><text x="140" y="203">C</text><text x="30" y="203">H</text></g>
  <g class="ill-legende"><rect class="ill-fond" x="24.3" y="213.6" width="119.4" height="18.5" rx="4" fill="#FFFFFF"/><text x="84" y="226" text-anchor="middle">Hauteur issue de A</text></g>
  <circle cx="264" cy="116" r="74" fill="none" stroke="#2D2B57" stroke-width="1.75"/>
  <path d="M236.3,47.4 L198.7,150.7 M198.7,150.7 L330.5,148.4 M330.5,148.4 L236.3,47.4" fill="none" stroke="#2D2B57" stroke-width="1.75" stroke-linecap="round" stroke-linejoin="round"/>
  <path d="M229.9,75.8 L223.8,70.7 M211.1,127.5 L205,122.3 M231.5,146.4 L228.9,154 M234.3,146.4 L231.7,153.9 M297.5,145.3 L294.8,152.8 M300.3,145.2 L297.6,152.8 M305.2,126.8 L312.5,123.7 M303.3,124.7 L310.6,121.6 M301.4,122.7 L308.7,119.6 M258.1,76.3 L265.4,73.1 M256.2,74.2 L263.5,71.1 M254.2,72.2 L261.6,69" fill="none" stroke="#2D2B57" stroke-width="1.2" stroke-linecap="round" stroke-linejoin="round"/>
  <path d="M288.4,124.9 L183.2,86.6 M263.5,90 L265.5,202 M245,133.7 L326.9,57.3" fill="none" stroke="#B34400" stroke-width="2" stroke-linecap="round" stroke-linejoin="round"/>
  <path d="M215.4,104.7 L209.8,102.7 L211.8,97 M270.6,149.5 L270.7,155.5 L264.7,155.6 M279.3,93.5 L283.7,89.4 L287.8,93.8" fill="none" stroke="#B34400" stroke-width="1.2" stroke-linecap="round" stroke-linejoin="round"/>
  <g font-size="12.5" font-weight="700" fill="#2D2B57" text-anchor="middle"><text x="230.3" y="39.4">A</text><text x="188.7" y="156.7">B</text><text x="340.5" y="154.4">C</text><text x="272" y="132">O</text></g>
  <g class="ill-legende"><rect class="ill-fond" x="204.3" y="213.6" width="119.4" height="18.5" rx="4" fill="#FFFFFF"/><text x="264" y="226" text-anchor="middle">Cercle circonscrit</text></g>
  <g><circle cx="30" cy="58" r="2.2"/><circle cx="74" cy="186" r="2.2"/><circle cx="140" cy="186" r="2.2"/><circle cx="30" cy="186" r="2.2"/><circle cx="236.3" cy="47.4" r="2.2"/><circle cx="198.7" cy="150.7" r="2.2"/><circle cx="330.5" cy="148.4" r="2.2"/><circle cx="264" cy="116" r="2.2"/></g>
</svg>
