<svg xmlns="http://www.w3.org/2000/svg" viewBox="0 0 360 232" font-family="system-ui, -apple-system, 'Segoe UI', Roboto, sans-serif">
  <!-- Cellule animale (joue) et cellule végétale (élodée) : membrane, cytoplasme, noyau ; paroi et chloroplastes pour la cellule végétale. Réviz, 6e sciences, la cellule. -->
<path d="M40,84 Q34,58 62,50 Q92,40 112,56 Q134,70 130,98 Q128,126 108,142 Q84,160 58,148 Q32,136 36,112 Q38,98 40,84 Z" fill="#FAF6EE" stroke="#2D2B57" stroke-width="1.75"/><circle cx="84" cy="104" r="13" fill="#DCD8EC" stroke="#2D2B57" stroke-width="1.5"/><rect x="236" y="48" width="110" height="112" rx="4" fill="#DDF2E3" stroke="#2E8B57" stroke-width="1.75"/><rect x="242" y="54" width="98" height="100" rx="3" fill="#FAF6EE" stroke="#2D2B57" stroke-width="1.2"/><ellipse cx="256" cy="62" rx="7.5" ry="4" transform="rotate(0 256 62)" fill="#7DBE93" stroke="#2E8B57" stroke-width="1.2"/><ellipse cx="282" cy="60" rx="7.5" ry="4" transform="rotate(0 282 60)" fill="#7DBE93" stroke="#2E8B57" stroke-width="1.2"/><ellipse cx="310" cy="61" rx="7.5" ry="4" transform="rotate(0 310 61)" fill="#7DBE93" stroke="#2E8B57" stroke-width="1.2"/><ellipse cx="332" cy="70" rx="7.5" ry="4" transform="rotate(90 332 70)" fill="#7DBE93" stroke="#2E8B57" stroke-width="1.2"/><ellipse cx="333" cy="98" rx="7.5" ry="4" transform="rotate(90 333 98)" fill="#7DBE93" stroke="#2E8B57" stroke-width="1.2"/><ellipse cx="332" cy="126" rx="7.5" ry="4" transform="rotate(90 332 126)" fill="#7DBE93" stroke="#2E8B57" stroke-width="1.2"/><ellipse cx="318" cy="147" rx="7.5" ry="4" transform="rotate(0 318 147)" fill="#7DBE93" stroke="#2E8B57" stroke-width="1.2"/><ellipse cx="290" cy="148" rx="7.5" ry="4" transform="rotate(0 290 148)" fill="#7DBE93" stroke="#2E8B57" stroke-width="1.2"/><ellipse cx="262" cy="146" rx="7.5" ry="4" transform="rotate(0 262 146)" fill="#7DBE93" stroke="#2E8B57" stroke-width="1.2"/><ellipse cx="251" cy="124" rx="7.5" ry="4" transform="rotate(90 251 124)" fill="#7DBE93" stroke="#2E8B57" stroke-width="1.2"/><ellipse cx="251" cy="96" rx="7.5" ry="4" transform="rotate(90 251 96)" fill="#7DBE93" stroke="#2E8B57" stroke-width="1.2"/><ellipse cx="264" cy="80" rx="7.5" ry="4" transform="rotate(40 264 80)" fill="#7DBE93" stroke="#2E8B57" stroke-width="1.2"/><circle cx="300" cy="112" r="12" fill="#DCD8EC" stroke="#2D2B57" stroke-width="1.5"/><path d="M154.3,66.5 L125,70" stroke="#2D2B57" stroke-width="1" opacity="0.6" fill="none"/><circle cx="125" cy="70" r="1.8" fill="#2D2B57"/><path d="M211.7,66.5 L242,66" stroke="#2D2B57" stroke-width="1" opacity="0.6" fill="none"/><circle cx="242" cy="66" r="1.8" fill="#2D2B57"/><path d="M148,102.5 L110,86" stroke="#2D2B57" stroke-width="1" opacity="0.6" fill="none"/><circle cx="110" cy="86" r="1.8" fill="#2D2B57"/><path d="M218,102.5 L272,104" stroke="#2D2B57" stroke-width="1" opacity="0.6" fill="none"/><circle cx="272" cy="104" r="1.8" fill="#2D2B57"/><path d="M163.8,138.5 L96,110" stroke="#2D2B57" stroke-width="1" opacity="0.6" fill="none"/><circle cx="96" cy="110" r="1.8" fill="#2D2B57"/><path d="M202.3,138.5 L289,118" stroke="#2D2B57" stroke-width="1" opacity="0.6" fill="none"/><circle cx="289" cy="118" r="1.8" fill="#2D2B57"/><path d="M291,32 L296,48" stroke="#2D2B57" stroke-width="1" opacity="0.6" fill="none"/><circle cx="296" cy="48" r="1.8" fill="#2D2B57"/><path d="M291,175 L290,152" stroke="#2D2B57" stroke-width="1" opacity="0.6" fill="none"/><circle cx="290" cy="152" r="1.8" fill="#2D2B57"/><text x="84" y="210" font-size="11" font-weight="600" fill="#8A8273" text-anchor="middle">cellule de joue</text><text x="84" y="223" font-size="11" font-weight="600" fill="#8A8273" text-anchor="middle">(animale)</text><text x="291" y="210" font-size="11" font-weight="600" fill="#8A8273" text-anchor="middle">cellule d'élodée</text><text x="291" y="223" font-size="11" font-weight="600" fill="#8A8273" text-anchor="middle">(végétale)</text><g font-size="11.5" font-weight="600" fill="#2D2B57"><g class="ill-legende"><rect class="ill-fond" x="154.3" y="59" width="57.4" height="15" rx="4" fill="#FFFFFF"/><text x="183" y="70" text-anchor="middle">Membrane</text></g><g class="ill-legende"><rect class="ill-fond" x="148" y="95" width="70" height="15" rx="4" fill="#FFFFFF"/><text x="183" y="106" text-anchor="middle">Cytoplasme</text></g><g class="ill-legende"><rect class="ill-fond" x="163.8" y="131" width="38.5" height="15" rx="4" fill="#FFFFFF"/><text x="183" y="142" text-anchor="middle">Noyau</text></g><g class="ill-legende"><rect class="ill-fond" x="271.8" y="17" width="38.5" height="15" rx="4" fill="#FFFFFF"/><text x="291" y="28" text-anchor="middle">Paroi</text></g><g class="ill-legende"><rect class="ill-fond" x="249.7" y="175" width="82.6" height="15" rx="4" fill="#FFFFFF"/><text x="291" y="186" text-anchor="middle">Chloroplaste</text></g></g>
</svg>
