<svg xmlns="http://www.w3.org/2000/svg" viewBox="0 0 360 262" font-family="system-ui, -apple-system, 'Segoe UI', Roboto, sans-serif">
  <!-- Bloc-diagramme d'un séisme : faille, rejet, foyer, épicentre, ondes sismiques. Réviz, 4e SVT, séismes. -->
<g transform="translate(0 -44)"><path d="M60,132 L150,132 L186,110 L96,110 Z" fill="#FBF7EF" stroke="#2D2B57" stroke-width="1.75" stroke-linejoin="round"/><path d="M150,132 L186,110 L192.2,129 L156.2,151 Z" fill="#D9CBB2" stroke="#2D2B57" stroke-width="1.75" stroke-linejoin="round"/><path d="M60,132 L150,132 L196,272 L60,272 Z" fill="#F4EBDD" stroke="#2D2B57" stroke-width="1.75" stroke-linejoin="round"/><path d="M156.2,151 L268,151 L304,129 L192.2,129 Z" fill="#FBF7EF" stroke="#2D2B57" stroke-width="1.75" stroke-linejoin="round"/><path d="M268,151 L304,129 L304,250 L268,272 Z" fill="#EADFC9" stroke="#2D2B57" stroke-width="1.75" stroke-linejoin="round"/><path d="M156.2,151 L268,151 L268,272 L196,272 Z" fill="#F4EBDD" stroke="#2D2B57" stroke-width="1.75" stroke-linejoin="round"/><path d="M60,172 H163.1 M169.4,191 H268 l36,-22 M60,212 H176.3 M182.5,231 H268 l36,-22 M60,246 H187.5 M193.7,265 H268 l36,-22 " fill="none" stroke="#2D2B57" stroke-width="1" opacity="0.45"/><path d="M150,132 L196,272" stroke="#2D2B57" stroke-width="2.25"/><path d="M150,132 H178.24306577940894" stroke="#2D2B57" stroke-width="1" stroke-dasharray="3 2"/><path d="M170.24306577940894,133 V150 M167.24306577940894,137 L170.24306577940894,133 L173.24306577940894,137 M167.24306577940894,146 L170.24306577940894,150 L173.24306577940894,146" stroke="#2D2B57" stroke-width="1.5" fill="none"/><circle cx="179.6" cy="222" r="14" fill="none" stroke="#B34400" stroke-width="1.5" opacity="1"/><circle cx="179.6" cy="222" r="26" fill="none" stroke="#B34400" stroke-width="1.5" opacity="0.75"/><circle cx="179.6" cy="222" r="38" fill="none" stroke="#B34400" stroke-width="1.5" opacity="0.5"/><path d="M179.6,222 V151" stroke="#B34400" stroke-width="1.5" stroke-dasharray="4 3"/><circle cx="179.6" cy="222" r="5" fill="#B34400"/><path d="M179.6,144 l6,7 l-6,7 l-6,-7 Z" fill="#B34400"/><path d="M41.5,222 L173.6,222" stroke="#2D2B57" stroke-width="1" opacity="0.6" fill="none"/><circle cx="173.6" cy="222" r="1.8" fill="#2D2B57"/><path d="M197.8,88 L182.6,143" stroke="#2D2B57" stroke-width="1" opacity="0.6" fill="none"/><circle cx="182.6" cy="143" r="1.8" fill="#2D2B57"/><path d="M114.4,88 L166,126" stroke="#2D2B57" stroke-width="1" opacity="0.6" fill="none"/><circle cx="166" cy="126" r="1.8" fill="#2D2B57"/><path d="M41.5,150.5 L168.2,142.5" stroke="#2D2B57" stroke-width="1" opacity="0.6" fill="none"/><circle cx="168.2" cy="142.5" r="1.8" fill="#2D2B57"/><path d="M269.3,285 L209.6,246" stroke="#2D2B57" stroke-width="1" opacity="0.6" fill="none"/><circle cx="209.6" cy="246" r="1.8" fill="#2D2B57"/><g font-size="11.5" font-weight="600" fill="#2D2B57"><g class="ill-legende"><rect class="ill-fond" x="3" y="215" width="38.5" height="15" rx="4" fill="#FFFFFF"/><text x="6" y="226">Foyer</text></g><g class="ill-legende"><rect class="ill-fond" x="187.8" y="73" width="63.7" height="15" rx="4" fill="#FFFFFF"/><text x="219.6" y="84" text-anchor="middle">Épicentre</text></g><g class="ill-legende"><rect class="ill-fond" x="73.6" y="73" width="44.8" height="15" rx="4" fill="#FFFFFF"/><text x="96" y="84" text-anchor="middle">Faille</text></g><g class="ill-legende"><rect class="ill-fond" x="3" y="143" width="38.5" height="15" rx="4" fill="#FFFFFF"/><text x="6" y="154">Rejet</text></g><g class="ill-legende"><rect class="ill-fond" x="249.3" y="285" width="101.5" height="15" rx="4" fill="#FFFFFF"/><text x="300" y="296" text-anchor="middle">Ondes sismiques</text></g></g></g>
</svg>
