<svg xmlns="http://www.w3.org/2000/svg" viewBox="0 0 360 262" font-family="system-ui, -apple-system, 'Segoe UI', Roboto, sans-serif">
<!-- Courbe de la population mondiale de 1800 à 2100 (milliards d'habitants) : lente jusqu'en 1900, très raide après 1950, projections de l'ONU (WPP 2024, variante moyenne) en pointillés après 2023. Réviz, 5e géographie (croissance de la population mondiale) et 6e géographie (dynamiques de la population mondiale). Généré par scripts/illustrations/graphiques/population-mondiale-1800-2100.mjs -->
<rect x="258.5" y="34" width="75.5" height="190" fill="#F4EBDD" opacity="0.7"/>
<path d="M89,224V34M138,224V34M187,224V34M236,224V34M285,224V34M334,224V34M40,189.5H334M40,154.9H334M40,120.4H334M40,85.8H334M40,51.3H334" stroke="#EAE8F2" stroke-width="1" fill="none"/>
<path d="M40,224H338M40,224V28" stroke="#2D2B57" stroke-width="1.75" fill="none"/><path d="M344,224L336,228L336,220Z" fill="#2D2B57"/><path d="M40,22L44,30L36,30Z" fill="#2D2B57"/>
<path d="M40,224v4M89,224v4M138,224v4M187,224v4M236,224v4M285,224v4M334,224v4" stroke="#2D2B57" stroke-width="1.5"/><g font-size="11" font-weight="600" fill="#8A8273" text-anchor="middle"><text x="40" y="240">1800</text><text x="89" y="240">1850</text><text x="138" y="240">1900</text><text x="187" y="240">1950</text><text x="236" y="240">2000</text><text x="285" y="240">2050</text><text x="334" y="240">2100</text></g>
<path d="M40,224h-4M40,189.5h-4M40,154.9h-4M40,120.4h-4M40,85.8h-4M40,51.3h-4" stroke="#2D2B57" stroke-width="1.5"/><g font-size="11" font-weight="600" fill="#8A8273" text-anchor="end"><text x="33" y="228">0</text><text x="33" y="193.5">2</text><text x="33" y="158.9">4</text><text x="33" y="124.4">6</text><text x="33" y="89.8">8</text><text x="33" y="55.3">10</text></g>
<text x="50" y="20" font-size="11.5" font-weight="600" fill="#2D2B57">Habitants (milliards)</text>
<path d="M40,207L49.8,206.4L59.6,205.2L69.4,203.9L79.2,202.9L89,202L98.8,201.6L108.6,200.9L118.4,199.6L128.2,197.7L138,195.9L147.8,193.5L157.6,191.3L167.4,188.2L177.2,184.4L187,180.9L191.9,176.7L196.8,171.9L201.7,166.4L206.6,160.2L211.5,153.7L216.4,147.2L221.3,139.9L226.2,132L231.1,124.5L236,117.4L240.9,110.2L245.8,102.7L250.7,95L255.6,87.8L257.6,85.5L258.5,84.2" fill="none" stroke="#B34400" stroke-width="2.25" stroke-linejoin="round" stroke-linecap="round"/>
<path d="M258.5,84.2L260.5,81.8L265.4,76L270.3,70.5L275.2,65.5L280.1,60.9L285,57.1L289.9,53.9L294.8,51.5L299.7,49.5L304.6,48L309.5,47L314.4,46.4L318.3,46.3L324.2,46.6L329.1,47.2L334,48.2" fill="none" stroke="#B34400" stroke-width="2.25" stroke-dasharray="5 4" stroke-linejoin="round"/>
<circle cx="40" cy="207" r="3" fill="#2D2B57" stroke="#FFFFFF" stroke-width="1"/><circle cx="187" cy="180.9" r="3" fill="#2D2B57" stroke="#FFFFFF" stroke-width="1"/><circle cx="257.6" cy="85.5" r="3" fill="#2D2B57" stroke="#FFFFFF" stroke-width="1"/><circle cx="285" cy="57.1" r="3" fill="#2D2B57" stroke="#FFFFFF" stroke-width="1"/>
<g font-size="11.5" font-weight="600" fill="#2D2B57">
<path d="M52,173.6L42,204" stroke="#2D2B57" stroke-width="1" opacity="0.6" fill="none"/><circle cx="42" cy="204" r="1.8" fill="#2D2B57"/>
<g class="ill-legende"><rect class="ill-fond" x="45" y="145.6" width="69" height="28" rx="4" fill="#FFFFFF"/><text x="48" y="156.6">1 milliard<tspan x="48" dy="13">(1800)</tspan></text></g>
<g class="ill-legende"><rect class="ill-fond" x="94.1" y="155.9" width="87.9" height="28" rx="4" fill="#FFFFFF"/><text x="179" y="166.9" text-anchor="end">2,5 milliards<tspan x="179" dy="13">(1950)</tspan></text></g>
<g class="ill-legende"><rect class="ill-fond" x="173.3" y="61.9" width="75.3" height="28" rx="4" fill="#FFFFFF"/><text x="245.6" y="72.9" text-anchor="end">8 milliards<tspan x="245.6" dy="13">(2022)</tspan></text></g>
<g class="ill-legende"><rect class="ill-fond" x="146" y="37.1" width="132" height="15" rx="4" fill="#FFFFFF"/><text x="275" y="48.1" text-anchor="end">9,7 milliards (2050)</text></g>
<g class="ill-legende"><rect class="ill-fond" x="262.3" y="133.5" width="69" height="28" rx="4" fill="#FFFFFF"/><text x="296.8" y="144.5" text-anchor="middle">Projection<tspan x="296.8" dy="13">de l’ONU</tspan></text></g>
</g>
</svg>
